<svg xmlns="http://www.w3.org/2000/svg" viewBox="0 0 340 40" fill="none">
  <!-- ========== LOGOMARK ========== -->
  <rect width="40" height="40" rx="10" fill="rgba(255,255,255,0.12)"/>
  <!-- Rising talent wave -->
  <path d="M10 28 L15 16 L20 22 L25 12 L30 20" stroke="#6ec6c8" stroke-width="3" stroke-linecap="round" stroke-linejoin="round" fill="none"/>
  <circle cx="15" cy="13" r="2" fill="#6ec6c8"/>
  <circle cx="25" cy="9" r="2" fill="#ffffff"/>
  <line x1="10" y1="31" x2="30" y2="31" stroke="#ffffff" stroke-width="2" stroke-linecap="round" opacity="0.3"/>

  <!-- ========== WORDMARK (paths) ========== -->
  <g transform="translate(52, 8)" fill="#ffffff">
    <!-- T -->
    <path d="M0 0h16v3.5H10.5V24H5.5V3.5H0V0z"/>
    <!-- A -->
    <path d="M18.5 24L27 0h4L39.5 24h-4.2l-1.8-5H24.3l-1.8 5h-4zm7-8.5h7.5L29.5 5.2h-.1L25.5 15.5z"/>
    <polygon points="29.2,10 27,14.5 31.4,14.5" fill="#6ec6c8" opacity="0.85"/>
    <!-- L -->
    <path d="M42 0h4.5v20H56V24H42V0z"/>
    <!-- E -->
    <path d="M59 0h14v3.5H63.5v5.5h8.5v3.5h-8.5v7.5H73V24H59V0z"/>
    <!-- N -->
    <path d="M77 0h4l10 17h.1V0h4v24h-3.8L81 6.8h-.1V24H77V0z"/>
    <!-- T -->
    <path d="M100 0h16v3.5h-5.5V24h-5V3.5H100V0z"/>
    <!-- S -->
    <path d="M118 19.5l2.8-3c1.8 1.8 4 3 6.2 3s3.5-1 3.5-2.5v-.1c0-1.5-.8-2.2-4.5-3.1-4.3-1.1-6.8-2.5-6.8-6.3v-.1c0-3.5 3-6.1 7.1-6.1 3 0 5.5 1 7.5 2.7l-2.5 3.2c-1.6-1.4-3.4-2.2-5-2.2-2 0-3.1 1-3.1 2.3v.1c0 1.6 1 2.3 4.8 3.2 4.3 1.1 6.5 2.7 6.5 6.2v.1c0 3.8-3 6.3-7.4 6.3-3.2 0-6.3-1.2-9.1-3.7z"/>
    <!-- W -->
    <path d="M140 0h3.8l5 16.5L154 0h3.2l5.2 16.5L167.4 0h3.8l-7.2 24h-3.6L155 7.5 149.6 24H146L140 0z"/>
    <!-- E -->
    <path d="M174 0h14v3.5h-9.5v5.5h8.5v3.5h-8.5v7.5H188V24h-14V0z"/>
    <!-- L -->
    <path d="M192 0h4.5v20H206V24h-14V0z"/>
    <!-- L -->
    <path d="M209 0h4.5v20H223V24h-14V0z"/>
  </g>
</svg>
